
<svg xmlns="http://www.w3.org/2000/svg" version="1.1" xmlns:xlink="http://www.w3.org/1999/xlink" preserveAspectRatio="none" x="0px" y="0px" width="1024px" height="768px" viewBox="0 0 1024 768">
<defs>
<linearGradient id="Gradient_1" gradientUnits="userSpaceOnUse" x1="-74.07500000000005" y1="742.4" x2="1075.375" y2="742.4" spreadMethod="pad">
<stop  offset="0%" stop-color="#E040FB"/>

<stop  offset="100%" stop-color="#FF79FF"/>
</linearGradient>

<g id="Layer0_0_FILL">
<path fill="url(#Gradient_1)" stroke="none" d="
M 694.75 723.9
Q 685 724.9 673.8 725.6 654.9 726.8 635.1 726.95 615.85 727.05 597.8 726.1 587.1 725.55 577.65 724.7 575.5 724.55 573.35 724.35 541.4 721.85 511.2 722.35 496.6 722.65 487.35 723.05 476.8 723.55 455.65 725 453.75 725.1 451.75 725.25 440.65 726 428.6 726.35 421.95 726.55 415.3 726.6 402.5 726.85 389.75 726.6 381.65 726.4 372.3 725.9 367.8 725.65 359.35 725.05 347.5 724.3 335.95 723.25 307.7 720.8 280.25 720.9 276.8 720.9 269.2 720.85 261.65 720.9 254.85 721.05 250.2 721.15 245.5 721.35 230 721.95 213.55 723.55 205.6 724.3 196.45 724.75 181.1 725.5 164.95 725.35 149.25 725.15 134.6 724.15 125.8 723.55 118.15 722.65 90.1 719.7 63.95 719.7 51.95 719.7 44.45 719.9 43.8 719.9 43.1 719.95 33.7 720.2 15.45 721.25 6.45 721.65 -3.35 721.8 -19.3 722 -34.95 721.35 -47.9 720.75 -59.7 719.6 -67.4 718.9 -74.05 717.9 -74.05 742.95 -74.05 768 500.7 768 1075.4 768 1075.4 744 1075.4 719.95 1049.75 720.35 1025.05 721.35 998.95 722.4 974.25 724.2 962.85 724.9 950.55 725.3 930.7 725.95 910.9 725.6 900.95 725.4 889.5 724.8 883.9 724.6 873.6 723.9 859.05 723.05 844.85 721.85 834.8 721.1 824.85 720.6 800.45 719.35 776.6 719.65 772.3 719.7 763.05 719.75 753.75 719.9 745.45 720.15 721.2 721.05 694.75 723.9 Z"/>
</g>
</defs>

<g transform="matrix( 1, 0, 0, 1, 0,0) ">
<use xlink:href="#Layer0_0_FILL"/>
</g>
</svg>
